Coordinates
version=1
nRows=8
nColumns=63
inDegrees=yes

Units are S.I. units (second, meters, Newtons, ...)
If the header above contains a line with 'inDegrees', this indicates whether rotational values are in degrees (yes) or radians (no).

endheader
time	pelvis_tilt	pelvis_list	pelvis_rotation	pelvis_tx	pelvis_ty	pelvis_tz	hip_flexion_r	hip_adduction_r	hip_rotation_r	knee_angle_r	knee_angle_r_beta	ankle_angle_r	subtalar_angle_r	mtp_angle_r	hip_flexion_l	hip_adduction_l	hip_rotation_l	knee_angle_l	knee_angle_l_beta	ankle_angle_l	subtalar_angle_l	mtp_angle_l	L5_S1_Flex_Ext	L5_S1_Lat_Bending	L5_S1_axial_rotation	L4_L5_Flex_Ext	L4_L5_Lat_Bending	L4_L5_axial_rotation	L3_L4_Flex_Ext	L3_L4_Lat_Bending	L3_L4_axial_rotation	L2_L3_Flex_Ext	L2_L3_Lat_Bending	L2_L3_axial_rotation	L1_L2_Flex_Ext	L1_L2_Lat_Bending	L1_L2_axial_rotation	L1_T12_Flex_Ext	L1_T12_Lat_Bending	L1_T12_axial_rotation	Abs_r3	Abs_r2	Abs_r1	Abs_t1	Abs_t2	neck_flexion	neck_bending	neck_rotation	arm_flex_r	arm_add_r	arm_rot_r	elbow_flex_r	pro_sup_r	wrist_flex_r	wrist_dev_r	arm_flex_l	arm_add_l	arm_rot_l	elbow_flex_l	pro_sup_l	wrist_flex_l	wrist_dev_l
      7.76700000	    -42.88855133	      3.49782625	      1.09791008	     -0.14738776	      1.02984159	      0.03443353	     82.14571316	     -7.32439722	      1.86241784	     74.09757541	      1.29324666	     -2.29730291	    -10.38708100	      0.00000000	    113.53697534	     -4.51557274	     -1.44480052	     95.10597058	      1.65991232	      4.57094857	    -14.27962309	      0.00000000	     -0.06548193	     -0.56654996	     -0.83512621	     -0.12160649	     -0.75351145	     -0.88732159	     -0.10758026	     -1.37750958	     -0.88732159	     -0.07483930	     -1.37750958	     -0.73073543	     -0.06080652	     -1.15530869	     -0.67854004	     -0.03741638	     -0.87758589	     -0.62634465	     -0.46773089	     -6.40892650	     -4.64472142	      0.00000000	      0.00000000	      0.00000000	      0.00000000	      0.00000000	     66.73551668	    -16.53687523	     33.22295787	     52.51847270	     58.66501461	      0.00000000	      5.00000014	     63.46632688	    -28.56020162	     28.18460453	     61.72916885	     63.74905760	      0.00000000	      5.00000014
      7.77500000	    -42.89669098	      3.34425888	      0.87806168	     -0.14815311	      1.02989799	      0.03493690	     83.39918671	     -6.87322346	      2.51722035	     77.40783983	      1.35102167	     -2.35964115	    -10.77252255	      0.00000000	    112.22483101	     -4.53252758	     -1.31963729	     92.06121586	      1.60677133	      4.40603907	    -13.57396407	      0.00000000	     -0.06604030	     -0.54212340	     -0.76327465	     -0.12264344	     -0.72102412	     -0.81097931	     -0.10849761	     -1.31811884	     -0.81097931	     -0.07547746	     -1.31811884	     -0.66786532	     -0.06132502	     -1.10549804	     -0.62016065	     -0.03773543	     -0.83974915	     -0.57245599	     -0.47171927	     -6.13260834	     -4.24510461	      0.00000000	      0.00000000	      0.00000000	      0.00000000	      0.00000000	     66.90328266	    -16.63076078	     33.43419388	     52.53251555	     58.70784994	      0.00000000	      5.00000014	     63.56195684	    -28.25733580	     28.11947819	     61.45409951	     63.77883866	      0.00000000	      5.00000014
      7.78300000	    -42.86581831	      2.85291461	      0.25791099	     -0.14877495	      1.02974742	      0.03582184	     84.52434350	     -5.96059703	      2.81791428	     80.55654693	      1.40597698	     -1.96914061	    -11.13526195	      0.00000000	    110.88224694	     -4.89847148	     -0.78827548	     89.08583435	      1.55484113	      3.97161205	    -13.21308148	      0.00000000	     -0.06902393	     -0.47015082	     -0.62690363	     -0.12818433	     -0.62530059	     -0.66608511	     -0.11339941	     -1.14312471	     -0.66608511	     -0.07888744	     -1.14312471	     -0.54854068	     -0.06409562	     -0.95873156	     -0.50935920	     -0.03944027	     -0.72826362	     -0.47017772	     -0.49303099	     -5.31844014	     -3.48664994	      0.00000000	      0.00000000	      0.00000000	      0.00000000	      0.00000000	     67.09788689	    -16.71300522	     33.42822827	     52.50500484	     58.71327872	      0.00000000	      5.00000014	     63.50031939	    -28.09737325	     28.05653530	     61.46359272	     63.78058017	      0.00000000	      5.00000014
      7.79200000	    -42.80760350	      2.97230624	      0.45849032	     -0.14902018	      1.02964095	      0.03595266	     85.95898921	     -5.99318867	      3.66543703	     84.08430679	      1.46754800	     -2.42648044	    -11.49988400	      0.00000000	    109.03599942	     -4.65787178	     -1.14980551	     85.72540435	      1.49619056	      4.15965046	    -12.54220237	      0.00000000	     -0.06570904	     -0.48246526	     -0.63541453	     -0.12202826	     -0.64167880	     -0.67512794	     -0.10795339	     -1.17306604	     -0.67512794	     -0.07509886	     -1.17306604	     -0.55598772	     -0.06101742	     -0.98384316	     -0.51627431	     -0.03754615	     -0.74733869	     -0.47656090	     -0.46935312	     -5.45774354	     -3.53398501	      0.00000000	      0.00000000	      0.00000000	      0.00000000	      0.00000000	     67.08672524	    -16.85283985	     33.80882133	     52.56463374	     58.76947736	      0.00000000	      5.00000014	     63.48200788	    -27.72207352	     27.59602746	     60.85733251	     63.77848958	      0.00000000	      5.00000014
      7.80000000	    -42.72378273	      2.90140608	      0.31571076	     -0.14920192	      1.02938507	      0.03646849	     87.29606693	     -5.65740574	      4.23296899	     87.38353930	      1.52513047	     -2.61968670	    -12.03687668	      0.00000000	    107.13246291	     -4.76264586	     -1.31645767	     82.41314733	      1.43838077	      4.27678591	    -12.10344758	      0.00000000	     -0.06751486	     -0.46732037	     -0.60155193	     -0.12538184	     -0.62153609	     -0.63914893	     -0.11092016	     -1.13624275	     -0.63914893	     -0.07716273	     -1.13624275	     -0.52635794	     -0.06269430	     -0.95295970	     -0.48876095	     -0.03857799	     -0.72387925	     -0.45116395	     -0.48225188	     -5.28642148	     -3.34565139	      0.00000000	      0.00000000	      0.00000000	      0.00000000	      0.00000000	     67.12639998	    -16.83043788	     33.95643183	     52.56064301	     58.80331192	      0.00000000	      5.00000014	     63.38552354	    -27.59201384	     27.28074284	     60.67034988	     63.78428004	      0.00000000	      5.00000014
      7.80800000	    -42.64238633	      2.74923473	      0.09234617	     -0.14920657	      1.02904508	      0.03699651	     88.63530597	     -5.21274748	      4.71712949	     90.56011652	      1.58057220	     -2.80019496	    -12.56315361	      0.00000000	    105.13382421	     -4.91967833	     -1.40571592	     79.08147316	      1.38023208	      4.30889933	    -11.94042582	      0.00000000	     -0.06620973	     -0.44146111	     -0.55301402	     -0.12295810	     -0.58714328	     -0.58757740	     -0.10877597	     -1.07336855	     -0.58757740	     -0.07567110	     -1.07336855	     -0.48388727	     -0.06148236	     -0.90022750	     -0.44932389	     -0.03783224	     -0.68382326	     -0.41476052	     -0.47292951	     -4.99389639	     -3.07569808	      0.00000000	      0.00000000	      0.00000000	      0.00000000	      0.00000000	     67.12940932	    -16.84970233	     34.06314924	     52.53628784	     58.83024014	      0.00000000	      5.00000014	     63.21277705	    -27.45360940	     26.96804412	     60.52890479	     63.78436575	      0.00000000	      5.00000014
      7.81700000	    -42.53994934	      2.76431375	     -0.02058301	     -0.14903196	      1.02851097	      0.03742069	     90.08265917	     -4.93056661	      5.26251219	     93.76705569	      1.63654385	     -3.25089472	    -13.31165324	      0.00000000	    102.98670674	     -5.07308862	     -1.91368335	     75.78034620	      1.32261655	      4.41180034	    -12.03558798	      0.00000000	     -0.06586413	     -0.43582030	     -0.53869884	     -0.12231628	     -0.57964100	     -0.57236751	     -0.10820818	     -1.05965348	     -0.57236751	     -0.07527612	     -1.05965348	     -0.47136148	     -0.06116143	     -0.88872476	     -0.43769280	     -0.03763476	     -0.67508565	     -0.40402413	     -0.47046090	     -4.93008643	     -2.99608131	      0.00000000	      0.00000000	      0.00000000	      0.00000000	      0.00000000	     67.11369388	    -16.75050396	     34.15484916	     52.51003394	     58.86486721	      0.00000000	      5.00000014	     63.04713586	    -27.45337949	     26.62044845	     60.43331451	     63.79847550	      0.00000000	      5.00000014
      7.82500000	    -42.43392050	      2.81435408	     -0.22336904	     -0.14875641	      1.02797272	      0.03797514	     91.54972532	     -4.53970336	      5.79194769	     96.79987532	      1.68947654	     -3.79220825	    -14.23143044	      0.00000000	    100.74551584	     -5.24969625	     -2.36930733	     72.47097163	      1.26485707	      4.28177313	    -12.46584768	      0.00000000	     -0.06596160	     -0.43614732	     -0.51237363	     -0.12249729	     -0.58007594	     -0.54439698	     -0.10836831	     -1.06044860	     -0.54439698	     -0.07538751	     -1.06044860	     -0.44832693	     -0.06125194	     -0.88939162	     -0.41630358	     -0.03769046	     -0.67559220	     -0.38428022	     -0.47115711	     -4.93378575	     -2.84966842	      0.00000000	      0.00000000	      0.00000000	      0.00000000	      0.00000000	     67.06971794	    -16.61579570	     34.15865032	     52.45967340	     58.90669870	      0.00000000	      5.00000014	     62.93780427	    -27.53376137	     26.49806063	     60.40657380	     63.85976163	      0.00000000	      5.00000014
